<svg xmlns="http://www.w3.org/2000/svg" viewBox="0 0 572.96 63.92"><defs><style>.cls-1{fill:#5e5b55;}</style></defs><g id="レイヤー_2" data-name="レイヤー 2"><g id="レイヤー_1-2" data-name="レイヤー 1"><g id="レイヤー_2-2" data-name="レイヤー 2"><g id="レイヤー_1-2-2" data-name="レイヤー 1-2"><path class="cls-1" d="M559.43,0c1.83,1.45,3.57,3,5.21,4.53C567,7,569.27,9.74,570.52,13a36.36,36.36,0,0,1,2.31,7.81,8.24,8.24,0,0,1-.58,4.82,5.32,5.32,0,0,1-1.06,1.06,2.7,2.7,0,0,1-.86-1c-.49-.87-1-1.83-1.35-2.7A1.91,1.91,0,0,1,569,22l1.73.39V20.53c.1-3.08-1.16-5.68-2.79-8.19a30,30,0,0,0-8.1-9c-.77-.57-1.45-1.15-2.22-1.83L558.76,0Z"/><path class="cls-1" d="M27.19,42.42c1.63-.77,2.89-1.45,4.14-2.12a24.23,24.23,0,0,1,11.28-3,25.89,25.89,0,0,1,2.8-.39c3,.39,6.26.2,8.87,2a22.46,22.46,0,0,1,5,5c1.25,1.74,1,3.95.38,5.88a28.64,28.64,0,0,1-6.17,10.8c-1.25,1.35-2.5,1.73-3.56,1a2.25,2.25,0,0,1-.68-1.35c1.93.39,2.89-.77,3.67-2.12,1.63-2.6,3.18-5.11,4.62-7.81.77-1.54.39-3.18-.09-4.82-.1-.29-.39-.58-.49-.86-.67-3-3.08-4-5.59-4.92a37.41,37.41,0,0,0-5.59-1.25,13.17,13.17,0,0,0-3.37.19,23.24,23.24,0,0,0-4.53.67c-2.22.77-4.34,1.64-6.46,2.61a8.69,8.69,0,0,0-2.61,1.54,5.12,5.12,0,0,0-2.12,3.57,25.39,25.39,0,0,1-.48,4,23.14,23.14,0,0,1-.48,2.79c-1,3.28-2,6.56-4.82,9a4.19,4.19,0,0,1-5.78,0c-.1-.1-.1-.19-.2-.19a4.38,4.38,0,0,1-.77-2.9A21.22,21.22,0,0,1,20.34,48c1.35-1.25,2.7-2.51,3.95-3.86a1.92,1.92,0,0,0,.58-1.44c-.09-2.61-.09-5.21-.38-7.81-.29-3.38-.68-6.85-1.06-10.22-.1-.48-.2-1-.29-1.64L19.57,25C15.71,27.09,11.38,28,7.13,29a8,8,0,0,1-6.07-1.16A6.38,6.38,0,0,1,0,26.61l.19-.29A9,9,0,0,0,2,27a10.62,10.62,0,0,0,7.33,0,29.5,29.5,0,0,1,4.15-1.15c3.47-.58,6.17-2.8,9.06-4.53a2.68,2.68,0,0,0,.77-1.64c.29-1.93.39-4,.58-5.88.19-1.74,1.25-2.32,2.79-1.84A3.48,3.48,0,0,1,29,16.1,7.51,7.51,0,0,1,27,20c-1.73,1.92-1.92,4.14-1.54,6.55.48,3.38,1,6.75,1.35,10C27,38.47,27.09,40.2,27.19,42.42Zm-2.7,5a12.75,12.75,0,0,0-4,3.47c-1.45,1.93-3.28,3.57-3.76,6a6.72,6.72,0,0,0-.1,4.14,1.58,1.58,0,0,0,2.22,1.06,4.82,4.82,0,0,0,3.08-2.41,67.29,67.29,0,0,0,2.61-7.42C24.87,50.8,25.45,49.26,24.49,47.43Z"/><path class="cls-1" d="M180.66,40.1c1.35.78,2.6,1.93,4.24,1.16,3.28-1.45,6.08-3.47,6.37-7.81a18.88,18.88,0,0,0-3.19,0A82.42,82.42,0,0,0,179.79,36a20.41,20.41,0,0,0-4.43,2.6,1.57,1.57,0,0,0-.58,2.12l2.7,6.46c.19.58.48,1.16.67,1.74.87,2.21,2,4.24,4.34,5.3l1.16.87c-.77.29-1.35.67-1.64.58a11.51,11.51,0,0,1-3.18-2.13,15.31,15.31,0,0,1-2.12-3.37c-1.06-2.22-2.12-4.43-3.09-6.65a16.06,16.06,0,0,1-.67-2c-.29-1-.87-1.15-1.64-.48-1.06,1-2.22,1.83-3.28,2.89a12.67,12.67,0,0,0-1.44,2c-.68.87-1.55.87-3,.38.87-1.25,1.83-2.41,2.79-3.56a23,23,0,0,1,3.76-3.09,2.65,2.65,0,0,0,1.16-3.08c-.58-2.32-1-4.73-1.45-7-.38-1.93-1.06-3.76-1.44-5.59a5,5,0,0,1,.48-4.05,7.51,7.51,0,0,1,1.35,2c.58,2,1,4.15,1.45,6.27.28,1.45.86,2,2.41,2,2.5,0,4.24-1.35,5.88-3.08a21.18,21.18,0,0,0,4.33-8.1l.29-.87a16.43,16.43,0,0,1,1.26-1.25c.19.68.77,1.45.58,2a15.37,15.37,0,0,1-1.55,4,36.14,36.14,0,0,1-4.24,5.88,8.34,8.34,0,0,1-6.17,2.7c-1.54,0-2.12.87-1.83,2.41a14.59,14.59,0,0,0,.58,1.93c.38,1.25,1.15,1,2,.48,1.74-1,3.47-1.93,5.3-2.8a16.06,16.06,0,0,1,2-.67c1.93-.48,3.86-1,5.78-1.26a13.82,13.82,0,0,1,4,0,1.47,1.47,0,0,1,1.44,1.64,1.28,1.28,0,0,1-.19.58c-.87,2.32-1.83,4.63-4,6.36-1.26,1.06-2.32,2.22-4,2.61A4,4,0,0,1,180.66,40.1Z"/><path class="cls-1" d="M267.42,45.41a15,15,0,0,1-1.92.48c-2.41.29-4.73.48-7.14.67a3.18,3.18,0,0,0-2.89,2.61,6.49,6.49,0,0,1-1.54,4.14,4.85,4.85,0,0,1-5,1.35A23.19,23.19,0,0,1,244,52.35c-1.74-1.16-1.54-2.32,0-3.76s3.57-1.83,5.49-2.32a19.46,19.46,0,0,0,3.38-.86,1.91,1.91,0,0,0,.87-1.26c0-2.7-.1-5.49-.29-8.19-.1-1.25-.39-1.35-1.64-1.06-2.12.48-4.24.77-6.46,1.16-.39,0-1.06-.39-1.06-.68a1.9,1.9,0,0,1,.58-1.35,2.89,2.89,0,0,1,1.54-.48,9.79,9.79,0,0,0,4.92-1c2-1,2.12-1,2.12-3.27,0-2-.39-2.32-2.41-1.83-1.64.38-3.28.57-4.92,1-1.35.29-2.6.67-3.86,1.06-.29.1-.58.29-.86.19a8,8,0,0,1-1.45-.48c.19-.48.38-1.16.67-1.25a53,53,0,0,1,5.21-1.74c2.12-.48,4.34-.67,6.46-1.06a1.2,1.2,0,0,0,1.16-1.25v-.19c0-.58.09-1.16.09-1.74a1.22,1.22,0,0,1,1.26-1.25h.28a1.69,1.69,0,0,1,1.26,2c-.19.58-.48,1.06-.68,1.74a20.25,20.25,0,0,1,2.32.67c.48.19.77.77,1.06,1.25-.39.29-.77.78-1.26.78-1.92.29-2.6,1.35-1.92,3.37a19.35,19.35,0,0,0,2.21-.77,15.76,15.76,0,0,0,2.12-1.25c.39,1.15.29,1.92-.77,2.5-1.35.77-3,1.26-3.47,2.89a12.15,12.15,0,0,0-.48,3.19c0,2.21.19,4.33.29,6.55,0,1.06.48,1.45,1.45,1.35,1.54-.1,3.18-.29,4.72-.38h.29l5.11.48Zm-17.06,7.9.1-.29a2.6,2.6,0,0,0,2.7-2,7.76,7.76,0,0,1,.38-1.45c.29-1.35.1-1.73-1.35-1.64a16,16,0,0,0-3.66.77A9.75,9.75,0,0,0,246,50.23c-.09.09,0,1.06.29,1.15,1.35.77,2.7,1.26,4.05,1.93Z"/><path class="cls-1" d="M450.5,42.51a14.46,14.46,0,0,1,2.5-7,18.22,18.22,0,0,1,6.46-6.27,2.23,2.23,0,0,0,1.35-2.6,40.38,40.38,0,0,1,0-4.92c0-.38.48-1,.68-1,.38,0,1.06.38,1.06.67a23.51,23.51,0,0,1,.09,4.53c-.19,1.64,0,1.83,1.64,1.45A44.08,44.08,0,0,1,471.42,26a9.34,9.34,0,0,1,4.62.87c2.61,1.06,3.47,3.56,3,6.17a26.75,26.75,0,0,1-4.34,10.6c-.38.48-.38,1.25-.77,1.83a1.08,1.08,0,0,1-1.35.39,1,1,0,0,1-.48-.58,1.37,1.37,0,0,1,.29-1.06,2.82,2.82,0,0,0,1-1.83c.2-1.06,1.16-1.93,1.55-3a49.12,49.12,0,0,0,2-7.33c.39-2.31-.77-3.18-3.08-3.76-3.28-.86-6.37-.09-9.36,1.06a3.93,3.93,0,0,0-2.7,2.9c-.48,2.21-1,4.62-2.6,6.45-.48.49-.48,1.45-1,2-1.16,1.44-2.51,2.7-3.86,4.14l-.09.1a3.52,3.52,0,0,1-3.38.29C450.3,44.64,450.4,43.57,450.5,42.51Zm9.83-11.08a9.38,9.38,0,0,0-1.45.67A16,16,0,0,0,455,35.38,10,10,0,0,0,452.71,42c-.09,1.26,1,1.74,2,1a11.91,11.91,0,0,0,1.93-1.84c2-2.31,2.5-5.3,3.66-8.09A4.51,4.51,0,0,0,460.33,31.43Z"/><path class="cls-1" d="M522.8,24.49c-2-.39-3.57.58-5.11,1.25s-3,1.74-4.53,2.51a7.22,7.22,0,0,1-1.26.48c-.57-2-.38-2.12,1.16-3.09a24.35,24.35,0,0,1,8.39-3.37c2-.48,2.41-1.25,2.7-3.28.38-2.22,1.06-4.43,1.54-6.55.19-.87.39-1.74.58-2.61a21.72,21.72,0,0,1,.87-2.31c.19-.29.67-.48,1-.68a6.35,6.35,0,0,1,.68,1,5.39,5.39,0,0,1-.58,3.85,23.9,23.9,0,0,0-2.32,8.87h4.63a5.55,5.55,0,0,1,1.35.2c2.7.67,3.47,1.83,2.7,4.53a13.67,13.67,0,0,1-1.74,3.85c-.86,1.26-1.92,1.16-2.89,0l-1.25-1.54c.19-.09.29-.09.48-.19.77.19,1.16,1.44,2.12.77.77-.58,1.74-3.37,1.45-4.24-.1-.39-.39-.58-.77-.77a15,15,0,0,0-4.63-.2,3.5,3.5,0,0,0-2.12,1.93,44.49,44.49,0,0,0-1.93,7c-.48,3-.48,6-.67,9.06a12.64,12.64,0,0,0,.09,1.74l1.16-.49c.58,1.07-.39,4.34-1.45,4.54a1.28,1.28,0,0,1-1.25-.78,16.07,16.07,0,0,1-.29-7.42c.1-.58-.1-1.25,0-1.83.29-2.22.77-4.34,1.16-6.56C522.32,28.25,522.51,26.32,522.8,24.49Z"/><path class="cls-1" d="M394.39,27.86c.29-.48.48-1.25,1-1.45a15.62,15.62,0,0,1,3.86-1.73c2.41-.68,3.37-1.74,3.37-4.24.1-.58.2-1.26.29-1.83.1-1,.77-1,1.54-.87s.87.67.58,1.35-.86,1.64.39,2.41l3.37-1.93a2.45,2.45,0,0,1-1.35,2.7c-.77.58-1.44,1.16-2.12,1.73-1.15,1.16-.58,2.61-.67,4a43.55,43.55,0,0,0,0,5.11A36.42,36.42,0,0,0,405,37.6c0,.29.77.67,1.06.67,1.45-.19,3-.48,4.44-.77l2.31-.29.1.29a9.17,9.17,0,0,1-1.74.77,27.76,27.76,0,0,1-3,.48c-1.44.2-3.66,2.41-3.47,3.76a10.36,10.36,0,0,1-1.06,4.82c-.58,1.45-1.44,2.13-3,1.74a8.86,8.86,0,0,1-2.89-1.74,6.43,6.43,0,0,1-1.73-2.5,2,2,0,0,1,.67-2.61,28,28,0,0,1,4.73-2.41c1.06-.38,1.63-.86,1.63-2,0-1.93-.09-3.86-.09-5.78,0-1.45,0-2.8-.1-4.25a5.56,5.56,0,0,0-.19-1.35c-.1-.77-.58-1-1.16-.57-1.25.57-2.6,1.25-3.85,1.83-.87.38-1.74.58-2.61,1Zm8,13.11a23.49,23.49,0,0,0-3.57,2.41,1.53,1.53,0,0,0-.29,2.12,1.59,1.59,0,0,0,.39.39,4.92,4.92,0,0,0,2,1,1.46,1.46,0,0,0,1.35-.48c.77-.87,1-3.76.1-5.4Z"/><path class="cls-1" d="M367.88,53c.87-1.93,1.73-3.76,2.6-5.69,1.16.58.58,1.55.39,2.13a51.26,51.26,0,0,1-2,5.3c-.48,1.06-2.41.67-3.28-.58a27.91,27.91,0,0,1-2.21-4,32.38,32.38,0,0,1-2.8-11.28c-.1-1.93-.67-3.76-.87-5.69-.19-2.12-.29-4.14-.38-6.26a50.45,50.45,0,0,1,0-5.5,19.51,19.51,0,0,1,.87-4.82c.09-.38.77-.48,1.25-.77a6.81,6.81,0,0,1,.09,1.35c-.19,1.83-.48,3.76-.57,5.59,0,2.7.09,5.4.29,8a116.49,116.49,0,0,0,1.63,13.11c.68,2.9,2.51,5.6,3.76,8.49.2.29.39.67.58,1Z"/><path class="cls-1" d="M109.32,36.73a16.69,16.69,0,0,1-.77,2c-1,1.64-1.93,3.28-3,4.82a2.33,2.33,0,0,0,.2,3,24.81,24.81,0,0,0,7.13,5.59c1.06.58,2,1.26,3.37,2.13a5.93,5.93,0,0,1-1.35.19c-4.91-1.35-9.15-3.57-12-8a1.61,1.61,0,0,1,0-2c1.54-2.41,3.08-4.91,4.63-7.32.19-.39,1-.39,1.35-.58Z"/><path class="cls-1" d="M387.25,17.16c.29-1.74,1.74-2.6,3.09-3.28a23.24,23.24,0,0,1,5.59-1.64c3.09-.67,6.27-1.15,9.45-1.64a3.06,3.06,0,0,1,1.83.2c.39.19.48,1,.77,1.35l-1.16.29a54.1,54.1,0,0,0-5.49.67c-3.57.77-7.13,1.74-10.7,2.6a5.62,5.62,0,0,0-1.25.78l-1.64,1Z"/><path class="cls-1" d="M67.19,20.63c-.09-1.06-.19-2.22-.19-3.28a13.25,13.25,0,0,0-.77-5.78A2.72,2.72,0,0,1,66,10.7c0-.77,0-1.54,1.06-1.54s1.06.58,1.15,1.35a29.65,29.65,0,0,1,.2,8.77,4.84,4.84,0,0,1-.77,1.54Z"/></g></g></g></g></svg>