<svg xmlns="http://www.w3.org/2000/svg" viewBox="0 0 594.07 66.64"><defs><style>.cls-1{fill:#54595a;}</style></defs><g id="レイヤー_2" data-name="レイヤー 2"><g id="レイヤー_1-2" data-name="レイヤー 1"><path class="cls-1" d="M580.15,0a67.33,67.33,0,0,1,5.36,4.73c2.43,2.63,4.76,5.36,6.09,8.81A32.84,32.84,0,0,1,594,21.6a8.4,8.4,0,0,1-.57,5,5.42,5.42,0,0,1-1.11,1.14,5.41,5.41,0,0,1-.94-1A29.26,29.26,0,0,1,590,23.91a3.39,3.39,0,0,1,0-1.07l1.8.38c0-.7,0-1.3,0-1.91.09-3.19-1.23-5.93-2.88-8.52a31.8,31.8,0,0,0-8.38-9.33c-.81-.56-1.55-1.24-2.34-1.88L579.36,0Z"/><path class="cls-1" d="M28.13,44.05c1.67-.83,3-1.45,4.34-2.19a24.7,24.7,0,0,1,11.65-3.07A16.8,16.8,0,0,1,47,38.41c3.12.42,6.5.18,9.17,2.11a25.37,25.37,0,0,1,5.24,5.21c1.34,1.76,1,4.14.4,6.07A29.44,29.44,0,0,1,55.39,63c-1.26,1.4-2.6,1.76-3.69,1A2.29,2.29,0,0,1,51,62.63c2.05.38,3-.83,3.85-2.15,1.66-2.65,3.32-5.31,4.8-8.06.85-1.58.38-3.31-.12-5-.1-.33-.39-.6-.47-.93-.73-3.07-3.2-4.21-5.8-5.06a34.14,34.14,0,0,0-5.83-1.31,13.6,13.6,0,0,0-3.47.22,25.58,25.58,0,0,0-4.74.72,72.36,72.36,0,0,0-6.74,2.71,9.37,9.37,0,0,0-2.66,1.58c-1.06,1-2.13,2-2.16,3.65a35.78,35.78,0,0,1-.45,4.12,20.54,20.54,0,0,1-.52,2.94c-1,3.43-2.15,6.84-5,9.32a4.22,4.22,0,0,1-6.18-.27,4.27,4.27,0,0,1-.81-3,22.33,22.33,0,0,1,6.37-12.06c1.37-1.34,2.8-2.62,4.12-4a2.34,2.34,0,0,0,.62-1.51c-.06-2.69-.13-5.38-.36-8.06-.3-3.55-.74-7.09-1.13-10.63-.06-.5-.16-1-.27-1.72l-3.72,2c-4,2.24-8.54,3.09-12.93,4.21a8.45,8.45,0,0,1-6.32-1.17A5.48,5.48,0,0,1,0,27.91l.18-.3A13.68,13.68,0,0,1,2,28a11.39,11.39,0,0,0,7.6,0,29.48,29.48,0,0,1,4.29-1.22c3.64-.62,6.4-2.93,9.44-4.7a2.52,2.52,0,0,0,.76-1.69c.26-2,.39-4.07.6-6.1.18-1.75,1.3-2.45,2.94-1.88A3.57,3.57,0,0,1,30,16.76a8.23,8.23,0,0,1-2.07,4c-1.82,2-2,4.31-1.65,6.82.49,3.47.95,7,1.36,10.45C27.86,39.88,28,41.74,28.13,44.05Zm-2.84,5.19a12.64,12.64,0,0,0-4.18,3.58c-1.53,2-3.37,3.67-3.89,6.24-.29,1.44-.71,2.84-.07,4.33.43,1,1.29,1.59,2.27,1.14C20.68,64,22,63.39,22.58,62c1-2.55,2-5.09,2.72-7.71C25.71,52.73,26.32,51.06,25.29,49.24Z"/><path class="cls-1" d="M187.26,41.58c1.38.85,2.71,2,4.36,1.24,3.44-1.53,6.31-3.6,6.63-8.11a13.35,13.35,0,0,0-3.29,0,77.66,77.66,0,0,0-8.61,2.61,23.8,23.8,0,0,0-4.59,2.72,1.71,1.71,0,0,0-.65,2.21L183.9,49c.25.6.51,1.2.74,1.81.88,2.34,2.09,4.4,4.47,5.53a10.07,10.07,0,0,1,1.16.89c-.77.28-1.4.74-1.72.58a11.66,11.66,0,0,1-3.31-2.15,14.44,14.44,0,0,1-2.17-3.51c-1.12-2.26-2.17-4.56-3.21-6.86a16.35,16.35,0,0,1-.69-2.08c-.32-1-.9-1.21-1.7-.5-1.12,1-2.34,1.91-3.42,3a20.41,20.41,0,0,0-1.53,2.09c-.73.94-1.65.93-3.06.4a39.37,39.37,0,0,1,2.89-3.68,29.79,29.79,0,0,1,3.92-3.25,2.72,2.72,0,0,0,1.2-3.24c-.59-2.41-1-4.86-1.54-7.27-.45-1.95-1.09-3.85-1.49-5.81a5.19,5.19,0,0,1,.49-4.19,8.88,8.88,0,0,1,1.41,2.12c.58,2.13,1,4.32,1.46,6.48.33,1.54.94,2.09,2.52,2.12,2.6.05,4.42-1.44,6.08-3.17a21,21,0,0,0,4.47-8.45,2.46,2.46,0,0,1,.32-.85c.39-.46.86-.85,1.29-1.27.24.69.8,1.46.65,2.06a14.32,14.32,0,0,1-1.59,4.12A37.68,37.68,0,0,1,187.16,30a8.42,8.42,0,0,1-6.4,2.81c-1.57,0-2.24.9-1.85,2.45.17.66.34,1.31.55,2,.42,1.33,1.22,1,2.14.52q2.72-1.51,5.49-2.9a9.74,9.74,0,0,1,2.12-.69c2-.48,4-1,6-1.33a15.94,15.94,0,0,1,4.14,0,1.61,1.61,0,0,1,1.39,2.31c-.94,2.43-1.87,4.82-4.08,6.57-1.33,1.06-2.42,2.33-4.2,2.71A4.4,4.4,0,0,1,187.26,41.58Z"/><path class="cls-1" d="M277.29,47.14a12.58,12.58,0,0,1-2,.54c-2.46.27-4.93.48-7.4.69a3.37,3.37,0,0,0-3,2.69,6.92,6.92,0,0,1-1.62,4.28,4.83,4.83,0,0,1-5.16,1.36A19.64,19.64,0,0,1,253,54.29c-1.77-1.15-1.55-2.43,0-3.89s3.68-1.9,5.72-2.37a26.71,26.71,0,0,0,3.55-.89,1.78,1.78,0,0,0,.88-1.35c0-2.83-.13-5.66-.26-8.49-.06-1.3-.42-1.38-1.7-1.09-2.2.49-4.44.85-6.67,1.15-.37,0-1.1-.4-1.14-.7a1.7,1.7,0,0,1,.57-1.37,2.57,2.57,0,0,1,1.6-.46,9.69,9.69,0,0,0,5.06-.95c2.06-1,2.23-1.05,2.22-3.42,0-2.12-.43-2.38-2.52-1.86-1.69.42-3.43.64-5.13,1-1.36.31-2.69.73-4,1.1-.29.08-.61.29-.87.24a9.68,9.68,0,0,1-1.46-.5c.23-.46.36-1.19.71-1.32a37.79,37.79,0,0,1,5.45-1.8c2.21-.49,4.47-.72,6.71-1.06a1.24,1.24,0,0,0,1.21-1.41c0-.61.08-1.22.12-1.83a1.31,1.31,0,0,1,1.58-1.32,1.74,1.74,0,0,1,1.29,2.07c-.19.56-.45,1.09-.74,1.79a12.79,12.79,0,0,1,2.35.74c.47.25.75.83,1.12,1.27-.43.29-.83.77-1.3.84-2,.32-2.71,1.42-1.95,3.49a22.25,22.25,0,0,0,2.3-.79,22.45,22.45,0,0,0,2.22-1.28c.35,1.23.29,2-.81,2.57-1.38.75-3.08,1.27-3.63,3a10.82,10.82,0,0,0-.51,3.29c0,2.26.23,4.52.26,6.77,0,1.12.52,1.51,1.52,1.43,1.64-.12,3.28-.28,4.92-.42a1.09,1.09,0,0,1,.26,0l5.29.52Zm-17.68,8.15.15-.31a2.55,2.55,0,0,0,2.78-2.06c.14-.5.24-1,.37-1.52.34-1.4.1-1.78-1.37-1.65a16,16,0,0,0-3.83.76,9,9,0,0,0-2.59,1.6c-.15.11,0,1.07.31,1.22C256.78,54.06,258.21,54.65,259.61,55.29Z"/><path class="cls-1" d="M467.23,44.11a14.49,14.49,0,0,1,2.59-7.29,18.22,18.22,0,0,1,6.74-6.45A2.47,2.47,0,0,0,478,27.63a31.67,31.67,0,0,1,0-5.06c0-.35.5-1,.72-.95.41,0,1.1.43,1.13.72a24.24,24.24,0,0,1,.14,4.66c-.16,1.7,0,1.88,1.73,1.48a50.32,50.32,0,0,1,7.42-1.43,11.54,11.54,0,0,1,4.82.88c2.74,1.06,3.65,3.66,3.14,6.36a27.91,27.91,0,0,1-4.51,11c-.38.54-.43,1.31-.77,1.9A1,1,0,0,1,490,47a1.28,1.28,0,0,1,.34-1.11,2.84,2.84,0,0,0,1-1.93c.25-1.1,1.21-2,1.57-3.12a49,49,0,0,0,2.12-7.64c.38-2.43-.79-3.33-3.17-3.92-3.43-.85-6.6-.08-9.7,1.13a4.08,4.08,0,0,0-2.79,3c-.52,2.35-1,4.77-2.72,6.7-.49.55-.48,1.53-.95,2.1-1.25,1.48-2.65,2.85-4,4.26a.41.41,0,0,1-.11.07,3.71,3.71,0,0,1-3.52.3C467,46.29,467.13,45.18,467.23,44.11Zm10.16-11.48a16,16,0,0,0-1.53.65,16.23,16.23,0,0,0-4,3.41c-1.83,2-2.28,4.44-2.43,6.93-.08,1.26,1.05,1.76,2.1,1a11,11,0,0,0,2-1.86c2.11-2.4,2.61-5.55,3.82-8.37A5.66,5.66,0,0,0,477.39,32.63Z"/><path class="cls-1" d="M542.21,25.36c-2.06-.43-3.66.58-5.27,1.34s-3.11,1.76-4.67,2.64a10.15,10.15,0,0,1-1.3.55c-.6-2.07-.43-2.16,1.16-3.21a25.83,25.83,0,0,1,8.67-3.53c2.09-.48,2.47-1.27,2.82-3.37.38-2.31,1.08-4.56,1.63-6.84.21-.89.36-1.79.62-2.66a14.57,14.57,0,0,1,.94-2.4c.17-.32.65-.48,1-.71.24.34.61.65.69,1a5.83,5.83,0,0,1-.59,4,24.42,24.42,0,0,0-2.41,9.24c1.71,0,3.26,0,4.81,0a6.22,6.22,0,0,1,1.43.17c2.78.72,3.57,1.92,2.8,4.69a13.7,13.7,0,0,1-1.82,4c-.9,1.33-2,1.23-3,0l-1.32-1.63a3.29,3.29,0,0,1,.47-.16c.76.21,1.16,1.52,2.24.75.84-.6,1.83-3.54,1.45-4.43a1.29,1.29,0,0,0-.79-.75,18.31,18.31,0,0,0-4.77-.24,3.51,3.51,0,0,0-2.17,2.05,39.13,39.13,0,0,0-1.95,7.26c-.46,3.09-.51,6.23-.72,9.36,0,.53,0,1.07.08,1.76l1.21-.54c.56,1.1-.42,4.45-1.45,4.7a1.62,1.62,0,0,1-1.34-.83,16,16,0,0,1-.32-7.71c.14-.59-.13-1.27,0-1.88.34-2.28.79-4.54,1.15-6.82C541.69,29.27,541.93,27.35,542.21,25.36Z"/><path class="cls-1" d="M409,28.9c.32-.53.53-1.27,1-1.54a19,19,0,0,1,4-1.83c2.52-.74,3.46-1.84,3.46-4.45a18.35,18.35,0,0,1,.29-1.93c.12-1,.84-1,1.56-.9s.85.72.65,1.41-.94,1.72.38,2.54l3.52-2.05a2.61,2.61,0,0,1-1.37,2.8,24,24,0,0,0-2.21,1.79c-1.24,1.17-.62,2.72-.71,4.1-.1,1.77-.07,3.56,0,5.33a42.63,42.63,0,0,0,.38,4.66c0,.28.75.7,1.11.65,1.54-.18,3.07-.52,4.6-.78.79-.14,1.58-.23,2.37-.34l.13.33a10.17,10.17,0,0,1-1.75.8,25.17,25.17,0,0,1-3.11.5c-1.48.17-3.76,2.45-3.63,3.91a10.53,10.53,0,0,1-1.11,5c-.62,1.51-1.52,2.17-3.07,1.76a8,8,0,0,1-3-1.79,8.48,8.48,0,0,1-1.83-2.61,2,2,0,0,1,.73-2.67,30.73,30.73,0,0,1,4.85-2.47c1.1-.42,1.73-.92,1.7-2.1-.05-2-.09-4-.13-6,0-1.46,0-2.91-.11-4.37a9.69,9.69,0,0,0-.19-1.42c-.12-.75-.58-1-1.24-.65-1.34.6-2.66,1.27-4,1.85-.88.38-1.82.65-2.73,1Zm8.28,13.65c-1.26.81-2.56,1.54-3.72,2.45a1.58,1.58,0,0,0,.06,2.57,6.19,6.19,0,0,0,2.08,1,1.73,1.73,0,0,0,1.36-.45C418,47.21,418.18,44.17,417.27,42.55Z"/><path class="cls-1" d="M381.55,55c.89-2,1.78-3.91,2.68-5.91,1.21.58.59,1.59.42,2.16a46.73,46.73,0,0,1-2.11,5.49c-.48,1.09-2.52.73-3.35-.63a34.84,34.84,0,0,1-2.33-4.23A33.18,33.18,0,0,1,374,40.21c-.09-2-.69-3.92-.9-5.9-.23-2.16-.33-4.33-.4-6.49a54,54,0,0,1,0-5.69,31.11,31.11,0,0,1,.85-5c.09-.35.84-.55,1.28-.81a8.1,8.1,0,0,1,.07,1.39c-.18,1.93-.55,3.85-.57,5.78a79.6,79.6,0,0,0,.34,8.32,106.53,106.53,0,0,0,1.74,13.62c.7,3,2.57,5.84,3.92,8.75.17.35.39.68.59,1Z"/><path class="cls-1" d="M113.34,38.11a13.65,13.65,0,0,1-.85,2.09q-1.48,2.53-3.11,5a2.31,2.31,0,0,0,.24,3.09A26.08,26.08,0,0,0,117,54.07c1.09.6,2.13,1.3,3.54,2.16a4.84,4.84,0,0,1-1.36.16c-5.06-1.36-9.48-3.68-12.39-8.27a1.73,1.73,0,0,1,0-2.14c1.64-2.51,3.17-5.09,4.83-7.59.24-.37,1-.43,1.44-.64Z"/><path class="cls-1" d="M401.62,17.77c.31-1.8,1.77-2.73,3.22-3.37a29.45,29.45,0,0,1,5.76-1.74c3.23-.67,6.51-1.17,9.78-1.68a3.07,3.07,0,0,1,1.88.21c.4.23.52,1,.76,1.45-.41.09-.82.21-1.23.26-1.9.23-3.83.3-5.69.7-3.74.8-7.44,1.76-11.14,2.71a5.68,5.68,0,0,0-1.32.8l-1.72,1Z"/><path class="cls-1" d="M69.59,21.39a24.47,24.47,0,0,1-.2-3.41,13.4,13.4,0,0,0-.82-6,2.31,2.31,0,0,1-.21-.88c0-.78,0-1.55,1.08-1.61s1.11.62,1.24,1.36a30,30,0,0,1,.2,9.07,5.51,5.51,0,0,1-.78,1.6Z"/></g></g></svg>