<?xml version="1.0" encoding="utf-8"?>
<!-- Generator: Adobe Illustrator 25.2.0, SVG Export Plug-In . SVG Version: 6.00 Build 0)  -->
<svg version="1.1" id="レイヤー_1" xmlns="http://www.w3.org/2000/svg" xmlns:xlink="http://www.w3.org/1999/xlink" x="0px"
	 y="0px" viewBox="0 0 594.1 66.6" style="enable-background:new 0 0 594.1 66.6;" xml:space="preserve">
<style type="text/css">
	.st0{fill:#707B8E;}
</style>
<g id="レイヤー_2_1_">
	<g id="レイヤー_1-2">
		<path class="st0" d="M580.2,0c1.9,1.5,3.7,3.1,5.4,4.7c2.4,2.6,4.8,5.4,6.1,8.8c1.1,2.6,1.9,5.3,2.4,8.1c0.3,1.7,0.1,3.4-0.6,5
			c-0.3,0.4-0.7,0.8-1.1,1.1c-0.4-0.3-0.7-0.6-0.9-1c-0.5-0.9-1-1.9-1.4-2.8c-0.1-0.4-0.1-0.7,0-1.1l1.8,0.4c0-0.7,0-1.3,0-1.9
			c0.1-3.2-1.2-5.9-2.9-8.5c-2.1-3.6-5-6.8-8.4-9.3c-0.8-0.6-1.5-1.2-2.3-1.9l1.2-1.6H580.2z"/>
		<path class="st0" d="M28.1,44c1.7-0.8,3-1.5,4.3-2.2c3.6-2,7.6-3,11.7-3.1c0.9-0.2,1.9-0.3,2.9-0.4c3.1,0.4,6.5,0.2,9.2,2.1
			c2,1.5,3.8,3.2,5.2,5.2c1.3,1.8,1,4.1,0.4,6.1c-1.3,4.2-3.5,8-6.4,11.2c-1.3,1.4-2.6,1.8-3.7,1c-0.4-0.4-0.6-0.8-0.7-1.4
			c2,0.4,3-0.8,3.8-2.2c1.7-2.7,3.3-5.3,4.8-8.1c0.8-1.6,0.4-3.3-0.1-5c-0.1-0.3-0.4-0.6-0.5-0.9c-0.7-3.1-3.2-4.2-5.8-5.1
			c-1.9-0.6-3.9-1-5.8-1.3c-1.2-0.1-2.3,0-3.5,0.2c-1.6,0.1-3.2,0.3-4.7,0.7c-2.3,0.8-4.5,1.7-6.7,2.7c-1,0.4-1.9,0.9-2.7,1.6
			c-1.1,1-2.1,2-2.2,3.7c-0.1,1.4-0.2,2.8-0.5,4.1c-0.1,1-0.3,2-0.5,2.9c-1,3.4-2.1,6.8-5,9.3c-1.7,1.6-4.3,1.6-6,0
			c-0.1-0.1-0.1-0.2-0.2-0.2c-0.6-0.9-0.9-1.9-0.8-3c0.8-4.6,3-8.8,6.4-12.1c1.4-1.3,2.8-2.6,4.1-4c0.4-0.4,0.6-0.9,0.6-1.5
			c-0.1-2.7-0.1-5.4-0.4-8.1c-0.3-3.5-0.7-7.1-1.1-10.6c-0.1-0.5-0.2-1-0.3-1.7l-3.7,2c-4,2.2-8.5,3.1-12.9,4.2
			c-2.2,0.5-4.4,0-6.3-1.2c-0.4-0.4-0.8-0.8-1.1-1.3l0.2-0.3C0.8,27.7,1.4,27.8,2,28c2.5,0.9,5.1,0.9,7.6,0c1.4-0.5,2.8-0.9,4.3-1.2
			c3.6-0.6,6.4-2.9,9.4-4.7c0.5-0.4,0.7-1.1,0.8-1.7c0.3-2,0.4-4.1,0.6-6.1c0.2-1.8,1.3-2.4,2.9-1.9c1.8,0.6,2.9,2.5,2.4,4.3
			c-0.3,1.5-1,2.9-2.1,4c-1.8,2-2,4.3-1.6,6.8c0.5,3.5,1,7,1.4,10.4C27.9,39.9,28,41.7,28.1,44z M25.3,49.2
			c-1.6,0.9-3.1,2.1-4.2,3.6c-1.5,2-3.4,3.7-3.9,6.2c-0.3,1.4-0.7,2.8-0.1,4.3c0.4,1,1.3,1.6,2.3,1.1c1.3-0.5,2.6-1.1,3.2-2.5
			c1-2.5,2-5.1,2.7-7.7C25.7,52.7,26.3,51.1,25.3,49.2z"/>
		<path class="st0" d="M187.3,41.6c1.4,0.8,2.7,2,4.4,1.2c3.4-1.5,6.3-3.6,6.6-8.1c-1.1-0.1-2.2-0.1-3.3,0c-2.9,0.7-5.8,1.6-8.6,2.6
			c-1.6,0.7-3.2,1.6-4.6,2.7c-0.8,0.5-1,1.4-0.6,2.2l2.8,6.7c0.2,0.6,0.5,1.2,0.7,1.8c0.9,2.3,2.1,4.4,4.5,5.5
			c0.4,0.3,0.8,0.6,1.2,0.9c-0.8,0.3-1.4,0.7-1.7,0.6c-1.2-0.5-2.3-1.3-3.3-2.2c-0.9-1.1-1.6-2.2-2.2-3.5c-1.1-2.3-2.2-4.6-3.2-6.9
			c-0.3-0.7-0.5-1.4-0.7-2.1c-0.3-1-0.9-1.2-1.7-0.5c-1.1,1-2.3,1.9-3.4,3c-0.6,0.7-1.1,1.4-1.5,2.1c-0.7,0.9-1.6,0.9-3.1,0.4
			c0.9-1.3,1.9-2.5,2.9-3.7c1.2-1.2,2.5-2.3,3.9-3.2c1.1-0.7,1.6-2,1.2-3.2c-0.6-2.4-1-4.9-1.5-7.3c-0.4-2-1.1-3.9-1.5-5.8
			c-0.4-1.4-0.3-2.9,0.5-4.2c0.6,0.6,1,1.3,1.4,2.1c0.6,2.1,1,4.3,1.5,6.5c0.3,1.5,0.9,2.1,2.5,2.1c2.6,0,4.4-1.4,6.1-3.2
			c2.1-2.4,3.6-5.3,4.5-8.4c0.1-0.3,0.2-0.6,0.3-0.9c0.4-0.5,0.9-0.9,1.3-1.3c0.2,0.7,0.8,1.5,0.6,2.1c-0.3,1.4-0.9,2.8-1.6,4.1
			c-1.3,2.2-2.7,4.2-4.4,6.1c-1.6,1.8-4,2.8-6.4,2.8c-1.6,0-2.2,0.9-1.9,2.5c0.2,0.7,0.3,1.3,0.6,2c0.4,1.3,1.2,1,2.1,0.5
			c1.8-1,3.6-2,5.5-2.9c0.7-0.3,1.4-0.5,2.1-0.7c2-0.5,4-1,6-1.3c1.4-0.2,2.8-0.2,4.1,0c0.9,0,1.6,0.8,1.5,1.7
			c0,0.2-0.1,0.4-0.2,0.6c-0.9,2.4-1.9,4.8-4.1,6.6c-1.3,1.1-2.4,2.3-4.2,2.7C190.2,45,188,43.7,187.3,41.6z"/>
		<path class="st0" d="M277.3,47.1c-0.7,0.2-1.3,0.4-2,0.5c-2.5,0.3-4.9,0.5-7.4,0.7c-1.5,0.1-2.7,1.2-3,2.7c0,1.6-0.6,3.1-1.6,4.3
			c-1.3,1.4-3.3,2-5.2,1.4c-1.8-0.6-3.5-1.4-5.1-2.4c-1.8-1.2-1.6-2.4,0-3.9s3.7-1.9,5.7-2.4c1.2-0.2,2.4-0.5,3.5-0.9
			c0.5-0.3,0.8-0.8,0.9-1.3c0-2.8-0.1-5.7-0.3-8.5c-0.1-1.3-0.4-1.4-1.7-1.1c-2.2,0.5-4.4,0.8-6.7,1.2c-0.4,0-1.1-0.4-1.1-0.7
			c0-0.5,0.2-1,0.6-1.4c0.5-0.3,1-0.5,1.6-0.5c1.7,0.1,3.5-0.2,5.1-1c2.1-1,2.2-1,2.2-3.4c0-2.1-0.4-2.4-2.5-1.9
			c-1.7,0.4-3.4,0.6-5.1,1c-1.4,0.3-2.7,0.7-4,1.1c-0.3,0.1-0.6,0.3-0.9,0.2c-0.5-0.1-1-0.3-1.5-0.5c0.2-0.5,0.4-1.2,0.7-1.3
			c1.8-0.7,3.6-1.3,5.4-1.8c2.2-0.5,4.5-0.7,6.7-1.1c0.7,0,1.2-0.6,1.2-1.3c0-0.1,0-0.1,0-0.2c0-0.6,0.1-1.2,0.1-1.8
			c0-0.7,0.5-1.3,1.3-1.3c0.1,0,0.2,0,0.3,0c0.9,0.2,1.5,1.1,1.3,2.1c-0.2,0.6-0.5,1.1-0.7,1.8c0.8,0.2,1.6,0.4,2.4,0.7
			c0.5,0.2,0.8,0.8,1.1,1.3c-0.4,0.3-0.8,0.8-1.3,0.8c-2,0.3-2.7,1.4-2,3.5c0.8-0.2,1.5-0.5,2.3-0.8c0.8-0.4,1.5-0.8,2.2-1.3
			c0.4,1.2,0.3,2-0.8,2.6c-1.4,0.8-3.1,1.3-3.6,3c-0.3,1.1-0.5,2.2-0.5,3.3c0,2.3,0.2,4.5,0.3,6.8c0,1.1,0.5,1.5,1.5,1.4
			c1.6-0.1,3.3-0.3,4.9-0.4c0.1,0,0.2,0,0.3,0l5.3,0.5L277.3,47.1z M259.6,55.3l0.1-0.3c1.3,0.1,2.5-0.8,2.8-2.1
			c0.1-0.5,0.2-1,0.4-1.5c0.3-1.4,0.1-1.8-1.4-1.7c-1.3,0.1-2.6,0.4-3.8,0.8c-0.9,0.4-1.8,0.9-2.6,1.6c-0.1,0.1,0,1.1,0.3,1.2
			C256.8,54.1,258.2,54.6,259.6,55.3L259.6,55.3z"/>
		<path class="st0" d="M467.2,44.1c0.2-2.6,1.1-5.1,2.6-7.3c1.6-2.7,4-4.9,6.7-6.5c1.1-0.5,1.7-1.6,1.4-2.7c-0.1-1.7-0.1-3.4,0-5.1
			c0-0.4,0.5-1,0.7-1c0.4,0,1.1,0.4,1.1,0.7c0.2,1.5,0.2,3.1,0.1,4.7c-0.2,1.7,0,1.9,1.7,1.5c2.4-0.7,4.9-1.1,7.4-1.4
			c1.7-0.1,3.3,0.2,4.8,0.9c2.7,1.1,3.6,3.7,3.1,6.4c-0.7,3.9-2.2,7.7-4.5,11c-0.4,0.5-0.4,1.3-0.8,1.9c-0.3,0.5-0.9,0.6-1.4,0.4
			c-0.2-0.1-0.4-0.3-0.5-0.6c-0.1-0.4,0.1-0.8,0.3-1.1c0.6-0.5,0.9-1.2,1-1.9c0.2-1.1,1.2-2,1.6-3.1c0.9-2.5,1.6-5,2.1-7.6
			c0.4-2.4-0.8-3.3-3.2-3.9c-3.4-0.9-6.6-0.1-9.7,1.1c-1.4,0.4-2.5,1.6-2.8,3c-0.5,2.3-1,4.8-2.7,6.7c-0.5,0.5-0.5,1.5-1,2.1
			c-1.2,1.5-2.6,2.8-4,4.3c0,0-0.1,0.1-0.1,0.1c-1,0.7-2.4,0.8-3.5,0.3C467,46.3,467.1,45.2,467.2,44.1z M477.4,32.6
			c-0.5,0.2-1,0.4-1.5,0.7c-1.5,0.9-2.9,2.1-4,3.4c-1.8,2-2.3,4.4-2.4,6.9c-0.1,1.3,1,1.8,2.1,1c0.7-0.5,1.4-1.2,2-1.9
			c2.1-2.4,2.6-5.5,3.8-8.4C477.5,33.8,477.5,33.2,477.4,32.6z"/>
		<path class="st0" d="M542.2,25.4c-2.1-0.4-3.7,0.6-5.3,1.3s-3.1,1.8-4.7,2.6c-0.4,0.2-0.9,0.4-1.3,0.5c-0.6-2.1-0.4-2.2,1.2-3.2
			c2.7-1.7,5.6-2.9,8.7-3.5c2.1-0.5,2.5-1.3,2.8-3.4c0.4-2.3,1.1-4.6,1.6-6.8c0.2-0.9,0.4-1.8,0.6-2.7c0.2-0.8,0.6-1.6,0.9-2.4
			c0.2-0.3,0.7-0.5,1-0.7c0.2,0.3,0.6,0.7,0.7,1c0.3,1.4,0.1,2.8-0.6,4c-1.4,2.9-2.2,6-2.4,9.2c1.7,0,3.3,0,4.8,0
			c0.5,0,1,0.1,1.4,0.2c2.8,0.7,3.6,1.9,2.8,4.7c-0.4,1.4-1,2.8-1.8,4c-0.9,1.3-2,1.2-3,0l-1.3-1.6c0.2-0.1,0.3-0.1,0.5-0.2
			c0.8,0.2,1.2,1.5,2.2,0.8c0.8-0.6,1.8-3.5,1.5-4.4c-0.1-0.4-0.4-0.6-0.8-0.8c-1.6-0.3-3.2-0.4-4.8-0.2c-1,0.3-1.8,1.1-2.2,2
			c-0.9,2.4-1.5,4.8-2,7.3c-0.5,3.1-0.5,6.2-0.7,9.4c0,0.5,0,1.1,0.1,1.8l1.2-0.5c0.6,1.1-0.4,4.5-1.5,4.7c-0.6,0-1.1-0.3-1.3-0.8
			c-0.7-2.5-0.8-5.2-0.3-7.7c0.1-0.6-0.1-1.3,0-1.9c0.3-2.3,0.8-4.5,1.2-6.8C541.7,29.3,541.9,27.3,542.2,25.4z"/>
		<path class="st0" d="M409,28.9c0.3-0.5,0.5-1.3,1-1.5c1.3-0.8,2.6-1.4,4-1.8c2.5-0.7,3.5-1.8,3.5-4.4c0.1-0.6,0.2-1.3,0.3-1.9
			c0.1-1,0.8-1,1.6-0.9s0.9,0.7,0.6,1.4s-0.9,1.7,0.4,2.5l3.5-2c0.2,1.1-0.3,2.3-1.4,2.8c-0.8,0.6-1.5,1.2-2.2,1.8
			c-1.2,1.2-0.6,2.7-0.7,4.1c-0.1,1.8-0.1,3.6,0,5.3c0,1.6,0.2,3.1,0.4,4.7c0,0.3,0.8,0.7,1.1,0.7c1.5-0.2,3.1-0.5,4.6-0.8
			c0.8-0.1,1.6-0.2,2.4-0.3l0.1,0.3c-0.6,0.3-1.1,0.6-1.8,0.8c-1,0.2-2.1,0.4-3.1,0.5c-1.5,0.2-3.8,2.5-3.6,3.9c0,1.7-0.3,3.5-1.1,5
			c-0.6,1.5-1.5,2.2-3.1,1.8c-1.1-0.4-2.1-1-3-1.8c-0.8-0.7-1.4-1.6-1.8-2.6c-0.5-0.9-0.2-2.1,0.7-2.7c1.5-1,3.2-1.8,4.9-2.5
			c1.1-0.4,1.7-0.9,1.7-2.1c0-2-0.1-4-0.1-6c0-1.5,0-2.9-0.1-4.4c0-0.5-0.1-1-0.2-1.4c-0.1-0.8-0.6-1-1.2-0.6
			c-1.3,0.6-2.7,1.3-4,1.9c-0.9,0.4-1.8,0.6-2.7,1L409,28.9z M417.3,42.5c-1.3,0.8-2.6,1.5-3.7,2.5c-0.7,0.5-0.8,1.5-0.3,2.2
			c0.1,0.1,0.2,0.3,0.4,0.4c0.6,0.5,1.3,0.8,2.1,1c0.5,0.1,1-0.1,1.4-0.5C418,47.2,418.2,44.2,417.3,42.5L417.3,42.5z"/>
		<path class="st0" d="M381.5,55c0.9-2,1.8-3.9,2.7-5.9c1.2,0.6,0.6,1.6,0.4,2.2c-0.6,1.9-1.3,3.7-2.1,5.5c-0.5,1.1-2.5,0.7-3.4-0.6
			c-0.9-1.4-1.7-2.8-2.3-4.2c-1.7-3.7-2.6-7.6-2.9-11.7c-0.1-2-0.7-3.9-0.9-5.9c-0.2-2.2-0.3-4.3-0.4-6.5c-0.1-1.9-0.1-3.8,0-5.7
			c0.1-1.7,0.4-3.4,0.9-5c0.1-0.4,0.8-0.5,1.3-0.8c0.1,0.5,0.1,0.9,0.1,1.4c-0.2,1.9-0.5,3.9-0.6,5.8c0,2.8,0.1,5.6,0.3,8.3
			c0.3,4.6,0.9,9.1,1.7,13.6c0.7,3,2.6,5.8,3.9,8.8c0.2,0.3,0.4,0.7,0.6,1L381.5,55z"/>
		<path class="st0" d="M113.3,38.1c-0.2,0.7-0.5,1.4-0.8,2.1c-1,1.7-2,3.4-3.1,5c-0.7,0.9-0.6,2.3,0.2,3.1c2.1,2.4,4.6,4.3,7.4,5.8
			c1.1,0.6,2.1,1.3,3.5,2.2c-0.4,0.1-0.9,0.2-1.4,0.2c-5.1-1.4-9.5-3.7-12.4-8.3c-0.5-0.6-0.5-1.5,0-2.1c1.6-2.5,3.2-5.1,4.8-7.6
			c0.2-0.4,1-0.4,1.4-0.6L113.3,38.1z"/>
		<path class="st0" d="M401.6,17.8c0.3-1.8,1.8-2.7,3.2-3.4c1.9-0.8,3.8-1.4,5.8-1.7c3.2-0.7,6.5-1.2,9.8-1.7
			c0.6-0.1,1.3-0.1,1.9,0.2c0.4,0.2,0.5,1,0.8,1.4c-0.4,0.1-0.8,0.2-1.2,0.3c-1.9,0.2-3.8,0.3-5.7,0.7c-3.7,0.8-7.4,1.8-11.1,2.7
			c-0.5,0.2-0.9,0.5-1.3,0.8l-1.7,1L401.6,17.8z"/>
		<path class="st0" d="M69.6,21.4c-0.1-1.1-0.2-2.3-0.2-3.4c0.2-2-0.1-4.1-0.8-6c-0.1-0.3-0.2-0.6-0.2-0.9c0-0.8,0-1.6,1.1-1.6
			s1.1,0.6,1.2,1.4c0.5,3,0.6,6.1,0.2,9.1c-0.2,0.6-0.4,1.1-0.8,1.6L69.6,21.4z"/>
	</g>
</g>
</svg>
