<?xml version="1.0" encoding="utf-8"?>
<!-- Generator: Adobe Illustrator 25.2.0, SVG Export Plug-In . SVG Version: 6.00 Build 0)  -->
<svg version="1.1" id="レイヤー_1" xmlns="http://www.w3.org/2000/svg" xmlns:xlink="http://www.w3.org/1999/xlink" x="0px"
	 y="0px" viewBox="0 0 595.3 841.9" style="enable-background:new 0 0 595.3 841.9;" xml:space="preserve">
<style type="text/css">
	.st0{clip-path:url(#SVGID_2_);}
	.st1{fill:#E1F755;}
</style>
<g id="レイヤー_2_1_">
	<g id="レイヤー_1-2">
		<g>
			<defs>
				<rect id="SVGID_1_" x="-1.9" y="0" width="593.2" height="841.9"/>
			</defs>
			<clipPath id="SVGID_2_">
				<use xlink:href="#SVGID_1_"  style="overflow:visible;"/>
			</clipPath>
			<g class="st0">
				<path class="st1" d="M0.2,819.3v-101c6.7-0.1,13.5,0.5,19.9-0.8c2.7-0.5,5.6-4.8,6.4-7.9c0.5-1.9-2.5-6.5-4.5-7
					c-6.7-1.5-13.6-1.7-20.5-2.4l24-27l0.6,6.4c7.4,1.8,14.8,3.8,22.2,5.4c1.8,0.2,3.5-0.3,4.8-1.5c0.7-0.7-0.4-2.9-0.4-4.4
					c0.3-7.4,0.7-14.9,1.1-23.2l4.7,6.7c0.6-3.6,1.2-7.2,1.8-10.8l-8.2-0.5c0.5-0.9,0.9-1.8,1-2.8c-0.4-10.5,5.1-22.6-8-29.9
					c-1.5-0.8-2.6-3.8-2.5-5.8c0-2.6,2.1-5.2,2-7.8c-0.4-15.6-0.9-31.2-2-46.7c-1.2-15.9-3.7-31.7-4.5-47.6
					c-0.4-6.7,1.1-12.7-8.8-10.2c2-5.2,5.5-10.3,5.8-15.6c0.5-12.2-0.9-24.4-0.8-36.6c0-4.1,3.7-8.5,3.1-12.3
					c-1.8-10.6-4.4-21-7.8-31.1c-1.4-4.4-5.2-11.2-8.2-11.3C6.6,392.7,3.9,385,4.2,372c0.3-11.1-2.5-22.2-4-33.3V125.5
					c2.5-5.7,4.8-11.4,7.5-16.9c0.5-1,3-1,4.6-1.5c0.1,1.5,0.6,3.1,0.3,4.5c-0.3,1.8-1.6,3.4-1.8,5.1c0,0.5,3.5,1.9,3.6,1.8
					c1.6-2.6,4.6-5.8,4-8c-3.2-12.9,5.6-10.7,12.7-10.7c6,0,12.2-0.8,17.8,0.7c3.9,1,6.9,5.4,10.3,8.2c-2.5,1.4-5.3,2.5-7.5,4.3
					c-1.5,1.5-2.6,3.4-3.1,5.5c-2.6,11.5,7,5,10.7,7.3c6.2,3.9,14.3,7,17.7,12.8c4.5,7.6,21.4,19,30,20.1c7.2,0.9,21-8.1,20.8,10.3
					c-0.1,12.8,7.5,6.6,13.6,4.8c3.4-1,7.7,0.7,10.9-0.6c5.7-2.3,11-6,16.4-9.1c-9.3-12.9,5.1-7.4,8.3-10.6c2.4-2.4,5.5-4,8.3-6
					c-3-0.6-6.1-1-9-1.7c-2.1-0.6-4.2-1.4-6.3-2.3c2-0.9,3.9-2,5.9-2.8c5.8-2.3,11.7-4.4,17.5-6.7c7.7-3,15.4-6.1,19.2-7.6
					c2.6,3.5,3.6,5,4.8,6.5c0.4,0.6,1,1.1,1.5,1.6c-0.8,0.5-1.6,1.5-2.3,1.4c-3-0.5-5.8-1.6-8.8-2c-2-0.2-4.1,0.4-6.1,0.6
					c1.5,1.3,3.1,3.8,4.4,3.6c12.5-1.7,25-3.2,37.3-6.2c16.3-3.9,31.4-17.3,49.4-2.6c3.2,2.6,11.7-1.1,17.8-2.1
					c0.4-0.1,0.6-1.8,0.9-2.8c-3.9,0-7.8,0.1-11.7,0c-0.4,0-0.7-0.8-2.5-3.1l36-3.2c-2.6-3.2-5.2-3.4-7.7-4c-3-0.7-5.9-1.7-8.8-2.6
					c0.9-2.9,1.8-5.8,2.7-8.6c0.2-0.8,0.4-1.6,0.6-2.4c-1.3-0.1-2.7-0.2-4-0.1c-16.9,1.5-33.7,3.3-50.6,4.4
					c-4.3,0.3-8.8-1.6-13.2-2.5c3.2-4.5,6.1-9.3,9.7-13.4c1.4-1.5,4.6-1.4,7-1.9c6.8-1.6,13.7-3.1,22.4-5c-3-1.2-3.8-1.8-4.6-1.9
					c-16.5-1.2-33-2.3-49.4-3.6c-1.3-0.1-2.3-2.4-3.7-3c-4.3-2.1-8.5-4.7-13.1-5.5c-8.2-1.5-18.1,0.5-24.7-3.3
					c-8.1-4.8-8.4-6.9-16.1-1.9l6.9,0.8c-1,1.6-1.8,4.4-2.9,4.5c-3.1,0.3-7,0.5-9.4-1.1c-12.7-8.2-26.3-4.6-38.1-0.6
					c-18.3,6.3-34.6,19.2-53.1,24c-20.2,5.2-42,5.1-63.1,5.5c-3.2,0-10.6-11.2-9.3-14.7c4.5-12.4-0.5-14.3-10.6-13.7
					c0-20,0.3-39.9-0.2-59.8C-0.2,1.2,1.3,0,7.7,0c175.9,0.2,351.8,0.3,527.8,0.2l-6.6,9.4c1.3-0.2,2.5-0.3,3.8-0.4
					c3.4,0.2,6.8,0.5,10.2,0.7c-3.2,1.5-6.4,3-9.6,4.5c-5,2.2-9.9,4.4-14.9,6.6c-3.6,15.9,9.1,2.1,11.8,6.5l4.8,1.7
					c-1.2,1-2.5,1.9-3.7,2.9s-3.5,2-3.6,3.1c-0.2,1.9,0.9,3.9,1.5,5.9c-3.2,0.8-6.4,2.3-9.4,2c-3.5-0.3-8.6-4.2-10.1-3
					c-6.5,5.3-18.2,1.7-21.7-6.8c-0.9-2.1-5.7-3.2-8.8-3.5c-2-0.2-4.3,2-6.5,3.1l7.3,3.9c-6.3,1.8-13.5,4.7-21,6.1
					c-19.3,3.6-38.8,6-57.9,10.1c-5.1,1.1-9.2,6.6-13.8,10.1c4.5,1,8.9,2.6,13.4,2.8c18.2,1,36.5,2.7,54.7,2
					c13.7-0.5,26.3,0.5,37,9.3c1.8,1.5,3.1,7.2,2.3,7.8c-5.5,4.1-11.5,7.4-17.5,10.7c-5.5,3.1-11.1,5.9-16.5,9
					c0.2,1.3,0.7,2.6,1.6,3.7c4.2,4.1,8.6,8,13,12c-4.7,0.5-9.4,0.9-14,1.6c-1,0.2-1.9,1.3-2.9,2c0.7,0.9,1.9,2.8,2.1,2.7
					c11.4-5.1,7.1,6,10,9.6l-3,2.4c-2.2-5.6-4.2-11.4-10.9-3.7c-1.1-1.5-2.5-2.9-3.2-4.5c-5.4-12.6-12.2,0.7-18.3-0.8
					c-0.7-0.2-2.2,3.9-3.7,5.8c-1.7,2-3.6,3.9-5.6,5.5c-0.4,0.3-2.2-1.7-3.1-1.5c-1.9,0.5-3.6,1.7-5.4,2.7c3.4,1.1,6.7,2.3,10.1,3.3
					c6.7,1.9,13.4,3.8,20,5.8c0.2,0.9,0.1,1.8-0.2,2.6c-0.9,1.3-2.1,3.1-3.4,3.3c-15.6,2.4-33.8-2.7-44.4,14.8
					c-0.9,1.6-1.6,3.2-2.3,4.9c1.9-0.5,4.1-0.7,5.7-1.7c3.8-2.3,7.7-7.5,11-7.1c17,2.2,33.9,5.7,55.4,9.6c-4.9-4.3-6.4-4.9-6.6-5.8
					c-1-4.3-1.7-8.6-2.5-13c2.1,0.9,4.7,3.1,6.3,2.6c10.7-3.9,4.4,4.6,5.9,7.4c0.2,0.5,2.2,0.2,3.4,0.1s3-0.6,3.1-0.4
					c1.8,5.3,2.6,12.2,10.2,4.4c0.5-0.6,2.9,0.9,4.4,0.9s2.8-0.8,4.2-1.3c-10.6-8,2.7-11,3.7-16.6c1.9-10,0.6-23.3,16.8-23.5
					c0.7,0,1.4-3.2,2-5c0.8-2.3,1.6-4.6,2.3-6.9l2.5,3.9c3.2-8,6.5-17.2,10.5-26.1c1.6-3.5,6-6,7.1-9.5c9.2-29.4,18-59,26.8-88.6
					c26.1,0,26.1,0,26.1,26.2c0,269,0.1,537.9,0.2,806.9c0,7-1.5,8.7-8.6,8.6c-58.1-0.3-116.2-0.2-174.4-0.2
					c-0.6-8.5-1.2-17-1.8-26.1c-1.7,0.2,1.1,0.1,3.8-0.6c3-0.8,5.8-1.9,8.8-2.9c-3.7-0.8-7.4-2.5-11-2.2c-4.8,0.4-11.6,4.8-13.9,3
					c-6.9-5.6-10.4-3.2-15.8,1.8c-3.5,3.2-12.2,6.8-13.6,5.3c-7.5-7.7-1.4-24.2,8.9-27.9c2.9-1.1,4.8-5,7.2-7.7
					c-2.9-0.6-5.7-1.1-8.7-1.4c-6.7-0.2-13.4,0.3-20-0.3c-24-2.4-48.1-6.8-72-6.2c-3.9,0.1-6.5,2.2-12.4-0.4
					c-7.5-3.3-17.5-0.8-29-0.8c4.7-2.2,7.5-3.4,10.3-4.7c1.2-0.6,2.3-1.4,3.5-2.1c-0.6-1-1.2-1.8-2-2.6c-9.9-7.7-22.8-4-25.8,7.4
					c-0.2,0.8-0.9,2-1.4,2c-9.2,0.5-18.6,0.3-27.7,1.5c-9.4,1.2-18.6,3.9-27.9,6c-0.4,0.1-0.7,1-0.9,1.6c-1.3,5.1-3.2,10.2-3.4,15.4
					c-0.1,2.2,3,5.6,5.4,6.6c4.1,1.6,8.9,1.4,13.2,2.6c11,3.2,21.9,6.6,32.7,10.3c2,0.7,3.4,3,4.9,4.7c0.1,0.2-0.7,1.8-1.4,2.1
					c-1.9,0.9-4,1.5-6,2.3c2.4,1.3,5.2,2.1,7,4s2.7,4.8,4,7.3l2.3,2.2H155c-1.1-7.7-1.9-15.4-3.4-23.1c-0.2-1.1-3.2-2.1-5-2.3
					c-0.6-0.1-1.6,2.3-2.3,3.6s-1.6,2.8-2.3,4.2c-3.1,5.8-6.2,11.7-9.3,17.5H20.7L0.2,819.3z M287.4,478.9l-0.2,8.4l24.9-5.5
					L287.4,478.9c8.2-8.5,2.1-8.5-4.8-8.4c-2.4,0.1-5-1.2-7.2-0.6c-15.2,4.5-30.4,9.4-45.6,14.1c-0.5-2.1-0.9-4.2-1.1-6.4
					c0-0.9,1.2-1.9,1.9-2.8c-1.6-0.5-3.4-0.7-4.6-1.7c-2.9-2.2-5.4-4.8-8.1-7.2c2.4-0.8,4.8-1.5,7.2-2.3c6.2-1.9,12.3-3.8,18.5-5.6
					c2.3-0.7,4.6-1.7,7-1.7c1.7,0,3.3,1.5,5,2.3c0.8-1.6,2.6-3.5,2.1-4.6c-5.7-14.2-17.6,0.5-25.5-5.2c-0.8-0.6-3.8,2-5.9,2.9
					c-2.4,1-5,2.7-7.3,2.5s-4.5-2.3-6.4-4c-2.9-2.6-5.4-5.5-8.1-8.3c2.5,0.4,5.2,1.5,7.4,0.9c2-0.6,4-3,4.7-5.1
					c1.6-4.2,2.3-8.8,3.4-13.2c0.9-3.4,3.5-7.7,2.3-10c-1.6-2.9-6.3-5.8-9.5-5.7c-9.1,0.4-17.3,4.4-27.6,1.4
					c-7.7-2.2-17.5,3.9-26.5,5.4c-5.4,0.9-11.2,0.4-16.8,0c-0.4,0-0.5-4.5-0.8-6.9c-3.1,2.6-6.1,5.2-9.2,7.8c-2.3,1.9-4.4,4-7,5.4
					c-0.7,0.4-2.9-1.6-4-2.9c-2.1-2.5-4-5.2-5.9-7.9c-1.3,3.1-2.2,6.6-4.1,9.3c-2.2,3.1-5.3,5.6-8.3,8c-0.2,0.2-2.8-1.6-3.3-2.9
					c-0.8-2-0.7-4.3-1-6.5l-8.8,1.3c1.3,1.5,3.2,2.8,3.9,4.5c0.6,1.4,0.5,4.1-0.4,4.9c-10,8.2-20.3,15.9-30.3,24.1
					c-3.6,2.9-7.5,6-9.9,9.9c-3.5,5.5-8.1,11.2,0.2,17.9c2.4,2-2,11.1,0.1,15.1c5.6,10.8,13,19.5,28.1,16.1c4.6-1,11.6,2.6,15.7,6.2
					c13.4,11.8,29,14.2,45.7,12.5c2.3-0.2,4.3-2.9,6.4-4.4c-2.2-0.6-4.4-1.2-6.5-2c-3-1.1-5.8-2.4-8.7-3.7c2.4-2,4.6-4.9,7.4-5.8
					c11.4-3.7,23.1-6.3,34.4-10.3c17.9-6.4,35.6-13.6,53.3-20.4l17.7,5.1c-5.6,0.7-9.8,0.6-13.7,1.8c-2.4,0.7-4.4,3.2-6.5,4.8
					c2.3,0.5,4.6,1.5,6.9,1.3c8.8-0.5,17.5-1.6,26.3-2.1c1.1-0.1,2.2,2.2,3.6,2.5c1.1,0.2,2.4-1,3.7-1.6c-2.6-2.4-5-5-7.8-7.2
					c-1-0.8-2.7-0.9-4.1-1.2c0.6-1,1-2.5,1.8-2.8c7.4-2.9,12.5-13.3,22.9-6.4C281.6,480.4,284.8,479.1,287.4,478.9z M588.1,696.3
					v24.5l6-0.3c-0.9-7-1.8-13.9-2.7-20.9v-55.2c-6.2,2.1-13.6,4.3-20.7,7.2c-2.6,1-4.5,3.8-6.6,5.7c2.1-0.1,4.7-1.1,6.1-0.2
					c2.9,1.8,6.5,4.1,7.6,7C581.7,674.7,584.7,685.6,588.1,696.3z M414,752.1c-0.1-2.7-0.2-5.5-0.4-8.2c-3.6,0.7-7.3,1.1-10.7,2.4
					c-1.3,0.5-1.6,3.3-2.4,5l13.6,0.5c-4.2,1.8-8.9,5.7-12.5,4.8c-7.3-1.7-14-6-21-9.2c-1.3-0.5-2.8-0.7-4.2-0.7
					c-0.4,0-1.4,1.3-1.3,1.5c8.7,14.1-9.6,4.9-9.9,11.4c0,0.5-2.7,0.9-4.1,1.3c1.6,1.4,3.4,4.3,4.7,4.1c7-1.2,13.9-3.5,20.9-4.8
					c2.4-0.4,5.1,1.1,7.6,1.7c-1.4,2.2-3,4.2-4.6,6.2c-0.9,1-2.4,1.5-3.7,2.3c0.9,1,1.7,2.3,2.8,2.9c12.7,6.6,25.4,9.2,39.5,2.9
					c11.3-5,13.4-11.3,4.9-21.2l-2.5,12.5l-19.3-6.1l6.7-7.8L414,752.1z M584.2,149.5c-4.7,5.3-8.9,11.1-14.2,15.7
					c-10.8,9.3-9.9,29.4,3.3,32.2c18.7,3.9,18.8,15.6,17.8,29.6c-0.2,3.3,0,6.6,0,9.8c1.9-21.7,2.4-43.5,1.4-65.3
					c-0.4-7.4-5.5-14.6-8.5-21.9c17-24.6,6-51.9,9.2-78.8c-4.5,3.5-7.5,6.1-10.7,8.4C572.2,86.8,560.9,93,565,110
					c2.2,9.2-0.2,19.5-0.9,29.2c-0.2,3.4-2.7,9.1-2,9.5c3.8,1.9,7.9,3,12.2,3.1C577.6,152,580.9,150.4,584.2,149.5z M592.9,447.3
					h-0.3c0-55.8,0-111.6,0-167.3c0-2.1-0.4-4.2-0.6-6.4c-1.8,1-4,1.7-5.5,3c-10.4,9.7-20.6,19.7-31.1,29.4c-2.5,2.3-7.2,6-8.7,5.2
					c-17.6-10-9.1,7.1-8.8,9.8c2.3,25,6.1,49.9,8.7,74.9c3.4,32.6,6,65.4,9.2,98c0.4,4.4,2.4,8.6,3.7,13c4.8-2.5,10.4-4.2,14.1-7.9
					c2.5-2.5,1.6-8,3.2-11.7c1.4-3.3,4-6.3,6.5-8.9c0.3-0.3,5.2,2,5.2,3.3c0.8,13.6,2.1,27.3,0.8,40.8c-0.4,4-9.6,10.6-13.7,9.9
					c-17.9-3-16.5,7-14.6,18.6c0.5,3-0.4,6.4,0.4,9.3c4.4,17-2.5,38.6,19.6,48.5c1.5,0.7,1.6,3.9,2.8,5.6c1.9,2.5,4.2,4.8,6.3,7.1
					c0.9-2.6,2.5-5.2,2.5-7.9C593,558.2,593,502.7,592.9,447.3z M364.1,358c18.7-1.9,33.5-3.5,48.4-4.9c0.6-0.1,1.3,1.5,2,1.6
					c5.7,0.5,11.5,1.6,17.2,1.1c6.1-0.5,12.3-4.1,17.9-3.2c5.4,0.9,9.9,6.3,15.2,8.8c14.5,6.8,50.1,2.3,59.3-10.5
					c6.1-8.5,6.4-21.5,7.9-32.6c0.2-1.4-8.1-3.6-12.1-6c-3.1-1.8-8.9,3.7-10.2-5.3c-0.5-3.2-11.7-5-18.1-7.2
					c-0.5-0.2-2.4,1.7-2.3,2.3c2.2,10.5-5.4,8.4-11.2,9.1c-17.3,2-35.3-4-52.1,5.8c-5.3,3.1-13.2,1.1-19.6,2.7
					c-15.9,4-31.6,8.5-47.3,13.1c-2.3,0.6-4.2,2.4-6.2,3.7c4.2,3.2,8.2,9.1,12.5,9.3C380.5,346.4,373.8,351,364.1,358z M446.3,558.8
					l-1.2-3c-7.7,0-15.4,0.1-23-0.1c-0.9,0-1.8-1.6-2.7-2.4c6.5-4.2,13-8.5,19.7-12.4c2.2-1.3,5.2-1.3,11.1-2.7
					c-10.3-3.5-17-6.6-24-7.7c-2.9-0.4-6.6,5.6-9.6,5.3c-4.8-0.5-9-5-13.9-5.8c-16.5-3.1-33.9-9.5-49.7-6.9
					c-26.4,4.3-52,14-77.5,22.7c-4.4,1.5-7.4,8.6-10,13.6c-1.7,3.2-1.5,7.3-2.4,12.2c0.2,0,4.2-0.1,8.2,0
					c10.6,0.4,21.2,0.4,31.7,1.3c11.7,1,26,15.8,32.9-6.7c15.3-1.5,30.5-3.2,45.8-4.3c5.8-0.4,11.7,0.8,17.6,1
					c1.8,0.1,3.6-0.9,5.4-1C418.5,560.8,432.4,559.8,446.3,558.8L446.3,558.8z M244,371.8c-0.9-0.1-1.8-0.3-2.6-0.6
					c-2.9-1.6-5.7-3.3-8.5-4.9c1.7,2.9,3.3,5.9,5,8.8c0.5,0.7,1,1.5,1.2,2.3c1.2,12.2,12.4,10.4,18.4,9.9c14.8-1.2,29.3-5.5,44-8.6
					c3.2-0.7,6.3-1.8,9.4-2.7c-1.6-2.4-3.6-4.6-4.8-7.1c-1-2.1-2-4.8-1.6-6.9c1.5-7.6-3.4-15-11-16.6c-2-0.4-4.1-0.4-6.1,0.1
					c-11,2.6-22,5.5-32.9,8.3C238.6,357.9,238.6,357.9,244,371.8L244,371.8z M373.3,709.3l14.4-10.5c-4.6-0.5-9.1-1.3-13.7-1.4
					c-5-0.2-10.1-0.5-14.8,0.6c-2.5,0.5-5.9,3.5-6.4,5.8c-2,10-3.1,20.1-4.5,30.2c-0.3,2.5-1.2,6.8-0.2,7.2c2.4,1.2,5.7,1.4,8.6,1
					c7.5-1,15.5-1.5,22.4-4.2c10.4-4,21.9,9.8,31.5-2.6c0.2-0.3,4.5,2.4,6.7,3.8c1.7,1.1,3.2,2.5,4.8,3.8c0.1-1.8,0.1-3.6,0.3-5.4
					c0.3-2.3,0.3-4.9,1.4-6.9c4.9-9.2,0.9-11.6-8-12.9C401.8,715.8,387.9,712.3,373.3,709.3L373.3,709.3z M552.4,201.3l3.5-0.1
					c-0.9-5.4-1.8-10.9-2.9-16.2c-0.1-0.4-2.3-1-2.6-0.7c-5.5,5.6-15.3,11.2-15.6,17.1c-1.3,28.6-0.1,57.4,0.9,86.1
					c0,1.3,9.6,4,10.2,3.2c4-6.4,9.5-13.5,9.5-20.4C555.5,247.2,553.6,224.2,552.4,201.3z M63.7,793c-2.8-10-6.7-22.8-9.9-35.7
					c-0.8-3.3-0.3-7.2,0.2-10.6c0.5-3.2,2-6.3,3.1-9.4c-2.6-0.1-5.8-1.3-7.7-0.1c-11.4,7-22.8,14.1-32.9,22.6c-1,0.8,6.5,11.8,10,18
					c1,1.9,2.5,3.8,2.7,5.9c1.4,15.1,12,10.5,20.8,10C53.3,793.5,56.7,793.4,63.7,793z M345.2,53.2l-0.6-2c-5.1,1.7-11.5,2-15,5.3
					c-4,3.7-5.5,10.2-7.8,15.6c-0.1,0.2,3.3,2.7,4.8,2.5c13.5-2.3,27.2-4.5,40.4-8.2c2.5-0.7,3-8.4,4.4-12.8c-3.3-1-6.7-3-10-2.9
					C356,50.8,350.6,52.2,345.2,53.2z M531.7,164.4h0.4c0,5.9-0.3,11.8,0.1,17.6c0.2,2.8,2,5.5,3.1,8.3c2.6-1.4,5.3-2.8,7.9-4.3
					c12.3-7,6.7-19.1,8.1-29.2c1.7-12.6-9.8-9.9-16.1-13.2c-1.1,3.8-2.6,7.6-3.3,11.6C531.3,158.2,531.7,161.3,531.7,164.4z
					 M276.3,216.7l19.8,10c-4.9,0.5-8,0.2-10.7,1.2c-2,0.7-3.3,3.1-5,4.8c1.6,1.2,3.1,3.3,4.7,3.3c9.1,0,18.3-0.4,27.4-1.2
					c1-0.1,2.9-3.7,2.5-5.2c-1.2-3.7-2.7-7.3-4.7-10.6c-1.3-2.4-3.2-6.5-4.6-6.4C296.9,213.2,288.3,214.9,276.3,216.7z M309.1,40.9
					c6.5-3,12.4-5.5,18.1-8.2c1.4-0.8,2.8-1.7,4.1-2.6c-1.6-0.6-3.2-1.1-4.9-1.4c-9.3-1.4-18.8-4.2-27.9-3.3
					c-6.1,0.6-13.4-10.1-18.4,1.4c-0.7,1.2-1.4,2.4-2.3,3.6c3.5,1.7,6.8,4,10.4,5c2.9,0.8,6.5-0.9,9.4-0.1
					C301.5,36.3,304.9,38.7,309.1,40.9z M309.1,190.4c-13.6,2.9-29.4,6.1-45.1,9.6c-0.8,0.2-2.2,2.2-2,2.5c1.1,1.8,2.8,4.7,3.9,4.6
					c10.1-1.5,20.4-2.5,29.9-5.8C301.2,199.5,305.2,193.7,309.1,190.4z M484.9,804.5l0.8,1.8c3.1-1,6.1-2.2,9-3.6
					c0.3-0.1-0.4-4-1.1-4.2c-7.7-2-15.5-4.2-23.5-4.9c-2.1-0.2-4.6,4.3-7,6.7c3,2,5.9,5.3,9.2,5.8
					C476.3,806.8,480.7,805.2,484.9,804.5z M495.3,698.7l19.1-11.9c-3.1-2.5-6.9-7.6-9.1-7c-5.9,1.7-11.2,5.9-16.7,9.1
					C490.4,691.5,492.1,694,495.3,698.7L495.3,698.7z M496.3,740.7c-3.5,3-6.8,5.5-9.7,8.4c-1.5,1.5-2.2,3.7-3.3,5.6
					c2.8-0.4,5.6-1,8.4-1.2c7.2-0.4,14.9-11.8,21.6,1.1c0.7,1.3,3.4,2.5,5,2.3c1.9-0.3,3.5-2.2,5.2-3.5c-1.3-1.7-2.3-4.1-4.1-4.8
					C512.3,745.9,505,743.6,496.3,740.7L496.3,740.7z M451.1,752.6c8.1-0.8,13.5-1.1,18.9-1.9c1.3-0.2,2.5-1.8,3.7-2.8
					c-2.9-3.6-5.6-7.4-8.7-10.8c-0.5-0.6-3.5-0.2-3.8,0.5c-4.5,8.8-10.1,9.7-17.4,3.3c-0.9-0.8-2.9-0.4-4.3-0.3
					c-0.2,0-0.8,1.3-0.7,1.4C443.4,746,448,750,451.1,752.6z M386,655.2c2.6-0.3,5.2-0.8,7.8-1.4c2.1-0.6,4-2,6-3
					c-2.3-1.7-4.6-5-6.8-4.9c-9.1,0.2-18.2,1.4-27.2,2.5c-1.2,0.1-2.2,1.5-3.3,2.3c0.6,0.6,1.2,1.6,1.9,1.7
					C370.4,653.2,376.7,654,386,655.2L386,655.2z M352.4,270c3.6-0.3,8.5-0.6,13.4-1.2c0.9-0.1,1.7-1.4,2.6-2.2
					c-0.7-0.5-1.5-1.5-2.2-1.5c-13.3-0.6-26.6-1.1-39.9-1.5c-0.9,0-1.8,1.1-2.8,1.8c0.8,0.7,1.6,2,2.5,2.1
					C334.3,268.4,342.7,269.1,352.4,270z M166.3,748.4c8-0.6,13.8-0.9,19.6-1.5c1.4-0.1,3.8-1.2,3.8-1.9c0-1.5-1.1-4.3-1.9-4.4
					c-6.5-0.6-13.1-0.7-19.7-0.4c-2,0.1-3.9,2.4-5.9,3.7L166.3,748.4z M370.3,384.7l-0.3-2.9c-11,0.5-22,0.6-32.9,1.8
					c-2.5,0.3-4.5,4.1-6.8,6.4c2.4,0.3,4.9,1.1,7.2,0.7C348.5,388.9,359.3,386.7,370.3,384.7L370.3,384.7z M442.8,13l1.3,3L455,8.1
					c-4.1-0.8-8.2-2.3-12.3-2.1c-5.8,0.2-11.5,1.6-17.2,2.8c-1.9,0.4-3.6,2.1-5.4,3.3c2.1,1.1,4.2,3.2,6.2,3.1
					C431.8,15,437.3,13.8,442.8,13z M384.8,452.2l24.1-3.8c-3.8-2.3-7.4-5.3-11.5-6.8c-2.8-0.9-6.8-0.3-9.5,1c-3.4,1.6-6,4.8-9,7.3
					L384.8,452.2z M272.2,303.9l-9.1,2.3c0.7,1.5,1.2,4.2,2.1,4.3c9.3,1.5,18.7,2.7,28,3.6c0.5,0,1.2-2.4,1.8-3.7
					c-1.6-0.6-3.2-1.9-4.7-1.7c-5.2,0.5-10.4,1.7-15.5,2.3c-1.2-0.1-2.3-0.7-3-1.8C271.3,308.5,271.9,307,272.2,303.9L272.2,303.9z
					 M78.6,240.1c-4-3.6-6.8-7.3-7.8-6.9c-5.8,2.3-11.2,5.6-16.6,8.8c-1,0.6-2.4,2.7-2.1,3.2c1.2,1.8,2.7,3.3,4.4,4.6
					c0.5,0.4,1.8-0.4,2.8-0.8c2.3-0.9,4.5-1.9,6.8-2.9C69.8,244.2,73.6,242.4,78.6,240.1z M304.2,245.3c6.2,0,15.5,0.8,24.5-0.4
					c3.2-0.4,5.9-5.5,8.7-8.6c0.2-0.3-0.9-2.5-1.3-2.5c-3.7,0-7.7-0.5-10.9,0.9C317.3,238,309.9,242.4,304.2,245.3L304.2,245.3z
					 M291.1,511.5l0.7,4.6c10.7-1.5,21.5-3,32.2-4.8c1.2-0.2,2.1-2,3.2-3c-1.3-0.6-2.6-1.8-3.8-1.6
					C312.6,508.2,301.9,509.9,291.1,511.5z M323.6,280.2l0.9,1.8c4.2-0.8,8.4-1.6,12.6-2.5c0.9-0.2,1.6-0.8,2-1.5
					c0.1-0.5-0.8-2-1.2-2c-8.9,0.5-17.8,1-26.7,1.8c-0.2,0-0.6,2.7-0.1,3.6c0.8,1.3,2.8,3.1,3.7,2.9
					C317.9,283.4,320.7,281.6,323.6,280.2L323.6,280.2z M305.4,74.5c3.4-6.3,6-9.4,6.4-12.7c0.2-1.5-4.9-5.5-6.4-4.9
					c-3.6,1.3-6.6,4.5-9.8,7L305.4,74.5z M381,508.7c-7.4-1.4-14-3-20.6-3.6c-2.4-0.2-5,1.9-7.4,2.9c1.4,2.3,3,6.8,4.2,6.7
					c6.9-0.5,13.8-2,20.6-3.3C378.8,511.1,379.5,509.9,381,508.7L381,508.7z M333.5,88.3l-7.4,3.3c3.5,0.3,7,0.4,10.5,0.8
					c1.4,0.2,2.9,1.7,4.1,1.4c5.2-0.9,10.4-2.2,15.6-3.5c0.4-0.1,0.3-1.9,0.4-2.9c-4.2,0.1-8.5,0.1-12.7,0.2
					C342.2,87.7,340.4,87.9,333.5,88.3z M97.8,371.2c9-1,16.9-1,24.3-3.1c2.1-0.6,2.5-7,3.6-10.7c0.1-0.4-0.7-1.6-0.9-1.6
					c-2.1,0.4-5.8,0.7-5.9,1.7c-2.3,12-12.8,6.6-19.3,9.5c-2.4,1-4.8,1.9-7.2,2.8L97.8,371.2z M295.1,595.6l18.3-8
					c-0.5-1-1.1-3-1.3-3c-5.2,1.2-10.4,2.5-15.6,3.8c-0.9,0.2-1.8,0.5-2.7,0.7c-2.5,0.5-5,1-7.4,1.4L295.1,595.6z M574,703.8
					c-0.3-0.7-0.7-1.4-1-2.1c-7.4,1.5-14.8,2.7-22.1,4.5c-2.2,0.6-4.1,2.8-6.1,4.3c2.9,0.9,6.4,3.3,8.7,2.5
					C560.6,710.5,567.2,706.9,574,703.8z M365.4,356c-2.1-1.9-3-3.1-3.4-3c-10.6,3.3-21.1,6.7-31.6,10.2c-0.3,0.1-0.2,1.5-0.4,2.3
					c1.1,0.2,2.2,0.3,3.4,0.1c7.4-2,14.8-4.1,22.2-6.3C358.6,358.6,361.5,357.4,365.4,356z M257.4,531.3l-0.2-1.2
					c-10.6,0-21.3-0.2-31.9,0.2c-1.4,0-2.7,3.1-4,4.8c1,0.6,2.1,1.8,3.1,1.6C235.4,535,246.4,533.2,257.4,531.3z M360.2,435.3
					c-0.2-1.2-0.4-2.5-0.6-3.7c-8.6,0-17.1-0.1-25.7,0.1c-1.4,0-2.7,1.5-4,2.2c0.7,0.9,1.5,2.5,2.2,2.5
					C341.4,436.2,350.8,435.7,360.2,435.3L360.2,435.3z M360.4,463.5c7.6-1.1,13.8-1.7,19.9-2.9c1.6-0.3,2.9-2.3,4.3-3.5
					c-1.9-0.6-3.8-1-5.7-1.2c-5.5-0.2-10.9-0.1-16.4,0.4c-2.6,0.3-4.9,2.5-7.4,3.9L360.4,463.5z M258.8,65.5l-2.2,1.5
					c2.1,0.8,4.1,2.1,6.3,2.4c5.8,0.8,11.6,1.3,17.4,1.5c1.6,0,3.2-1.7,4.9-2.6c-1.6-0.9-3.1-2.6-4.7-2.7
					C274.8,65.2,269,65.4,258.8,65.5L258.8,65.5z M256.6,573.9l-2.3-3.4c-1.4,0-2.7,0.2-4.1,0.4c-4.8,1-9.5,2.2-14.3,3.2
					c-4.3,0.9-8.6,1.5-12.9,2.3c4.2,0.3,8.4,0.5,12.6,1.1c2.2,0.3,4.3,1.3,6.5,1.9c1.4,0.4,3.1,1.4,4.1,0.9
					C249.9,578.3,253.2,576,256.6,573.9L256.6,573.9z M325.5,587.8l-12.3,5.7c3.7,1.7,7.5,4.9,11.2,4.8c3.1-0.1,6-4,9.1-6.2
					L325.5,587.8z M23.6,109.1c3.6,4.8,5.7,7.8,5.8,7.8c4.4-2.9,8.6-6,12.9-9.2c-2-0.9-4.2-2.8-6.1-2.6
					C32.8,105.4,29.6,107.1,23.6,109.1z M251.6,294.4c7.4-0.8,14-1.5,20.5-2.4c0.3,0,0.3-2,0.4-3.1c-6.7,0.7-13.4,1.4-20.2,2.1
					C252.3,290.9,252.3,291.5,251.6,294.4L251.6,294.4z M330.9,254.1c-8.7,0-13.8-0.2-18.9,0.1c-1.9,0.1-4.8,0.9-5.3,2.1
					c-0.9,2.4-0.4,5.3-0.4,8c2.3-0.5,4.7-0.8,6.9-1.7C317.9,260.5,322.4,258.2,330.9,254.1L330.9,254.1z M337.2,163.6l12.5-5.3
					c-4.4-0.9-8.8-2.4-13.1-2.3c-3.1,0-6.2,2.1-9.3,3.2L337.2,163.6z M337.2,95c1.6,6.8,1.9,9.9,3.2,12.5c1.1,1.7,2.8,2.8,4.8,3.2
					c1.4,0.2,3-1.5,4.6-2.4c-1.5-1.2-2.8-2.5-4.2-3.9c-0.7-0.8-1-1.8-0.9-2.8c0.4-1.1,1.6-2,2.4-3L337.2,95z M317.8,444.5l-28.1,3.5
					c0.4,0.7,0.8,2.1,1.1,2.1c8.8-1,17.6-2.2,26.5-3.4C317.5,446,317.6,445.2,317.8,444.5z M326.6,183.4l0.1,0.7h39.8
					c0-1.1-0.1-2.2-0.1-3.3L326.6,183.4z M346,213.1l20-3.4l-19.7-0.7c-0.6,0-1.2-0.1-1.9,0l-15.1,0.6L346,213.1z M71.2,760.7
					c-2.9-5.9-5.6-11.5-8.4-16.9c-0.4-0.7-2-0.7-3.1-1c-0.3,0.8-0.4,1.7-0.4,2.5c0.8,3.8,1.1,7.8,2.7,11.2c1.4,2.9,4.3,5.2,6.5,7.7
					L71.2,760.7z M251.1,514.1c0.3-1.6,0.5-3.2,0.8-4.8l-17.8-2.2c-0.2,1.3-0.3,2.7-0.3,4C239.5,512.2,245.3,513.1,251.1,514.1z
					 M366,196.5l0.1,2.2c9.4,0,18.8,0.1,28.2-0.1c1.5,0,2.9-1.3,4.4-2c-1.5-0.7-3.1-2.2-4.6-2.1C384.8,195,375.4,195.8,366,196.5
					L366,196.5z M517.6,694.7c0.2,0.7,0.3,1.4,0.5,2.1c8.5-1.6,17.1-3.1,25.5-4.8c1-0.2,1.8-1.8,2.7-2.8c-1.2-0.5-2.5-1.7-3.5-1.5
					C534.3,689.9,526,692.3,517.6,694.7z M335.3,304c-0.1-1-0.1-2.1-0.2-3.1c-7.8,0.5-15.7,0.8-23.5,1.5c-1.2,0.1-2.2,1.8-3.3,2.7
					c0.9,0.6,1.9,1.7,2.7,1.6C319.1,305.9,327.2,304.9,335.3,304z M258.7,753.3l13.7-7.2c-1.5-0.6-3.1-2-4.5-1.8
					c-5.7,1-11.3,2.4-16.9,3.7L258.7,753.3z M222.3,148.3l-7.2,3.4c1.6,0.9,3.5,2.9,4.9,2.6c5.3-1.2,10.4-3.1,15.6-4.8L222.3,148.3z
					 M77.4,62.7l-11.1,5.8c1.7,1.4,4.1,4.3,5.1,3.8c4.4-1.9,8.5-4.7,12.7-7.2L77.4,62.7z M73.7,272.1l11.8-8.2l-8.5-6.7
					c-1.9,3.8-3.8,7.5-5.4,11.4C71.4,269.2,72.8,270.5,73.7,272.1z M359.2,605.1c0.1,1.2,0.1,2.5,0.2,3.7l26.2-3.5l-0.5-3.3
					L359.2,605.1z M214,555.6c0.4-0.1-2.8,1.1-5.9,2.3c3.9,1.3,7.9,4,11.6,3.6c3.5-0.3,6.6-3.8,9.9-5.9L214,555.6z M527.5,749.8
					l4.8-6c-3.6-2.1-7.2-4.3-11-6.2c-0.4-0.2-3.1,3.3-2.9,3.5C520.9,743.8,523.7,746.3,527.5,749.8z"/>
			</g>
		</g>
	</g>
</g>
</svg>
