<svg xmlns="http://www.w3.org/2000/svg" viewBox="0 0 25.5 25.5"><defs><style>.cls-1{fill:none;stroke:#26478d;stroke-miterlimit:10;stroke-width:0.5px;}</style></defs><g id="レイヤー_2" data-name="レイヤー 2"><g id="レイヤー_1-2" data-name="レイヤー 1"><path class="cls-1" d="M12.75.25a12.5,12.5,0,1,0,12.5,12.5A12.5,12.5,0,0,0,12.75.25ZM18.46,10c0,.12,0,.24,0,.37a8.11,8.11,0,0,1-8.17,8.16h0a8.15,8.15,0,0,1-4.39-1.29,5.07,5.07,0,0,0,.68,0,5.74,5.74,0,0,0,3.56-1.23,2.88,2.88,0,0,1-2.68-2A2.86,2.86,0,0,0,8.77,14,2.88,2.88,0,0,1,6.46,11.2v0a2.86,2.86,0,0,0,1.31.36,2.87,2.87,0,0,1-.89-3.83,8.15,8.15,0,0,0,5.91,3,2.87,2.87,0,0,1,4.89-2.62,5.68,5.68,0,0,0,1.82-.7A2.85,2.85,0,0,1,18.24,9a5.94,5.94,0,0,0,1.65-.45A6,6,0,0,1,18.46,10Z"/></g></g></svg>