<svg xmlns="http://www.w3.org/2000/svg" viewBox="0 0 26.5 26.5"><defs><style>.cls-1{fill:none;stroke:#26478d;stroke-miterlimit:10;stroke-width:0.5px;}</style></defs><g id="レイヤー_2" data-name="レイヤー 2"><g id="レイヤー_1-2" data-name="レイヤー 1"><path class="cls-1" d="M15.74,13.25a2.49,2.49,0,1,1-2.49-2.49A2.5,2.5,0,0,1,15.74,13.25Z"/><path class="cls-1" d="M19.07,8.85a2.48,2.48,0,0,0-1.42-1.42,4.34,4.34,0,0,0-1.38-.26c-.79,0-1,0-3,0s-2.23,0-3,0a4.34,4.34,0,0,0-1.38.26A2.48,2.48,0,0,0,7.43,8.85a4.34,4.34,0,0,0-.26,1.38c0,.79,0,1,0,3s0,2.23,0,3a4.27,4.27,0,0,0,.26,1.38,2.48,2.48,0,0,0,1.42,1.42,4.34,4.34,0,0,0,1.38.26c.79,0,1,0,3,0s2.23,0,3,0a4.27,4.27,0,0,0,1.38-.26,2.48,2.48,0,0,0,1.42-1.42,4.27,4.27,0,0,0,.26-1.38c0-.79,0-1,0-3s0-2.23,0-3A4.34,4.34,0,0,0,19.07,8.85Zm-5.82,8.23a3.83,3.83,0,1,1,3.83-3.83A3.82,3.82,0,0,1,13.25,17.08Zm4-6.92a.9.9,0,1,1,.9-.89A.89.89,0,0,1,17.23,10.16Z"/><path class="cls-1" d="M13.25.25a13,13,0,1,0,13,13A13,13,0,0,0,13.25.25Zm7.42,16.08a5.47,5.47,0,0,1-.35,1.81,3.78,3.78,0,0,1-2.18,2.18,5.41,5.41,0,0,1-1.81.35c-.8,0-1,0-3.08,0s-2.28,0-3.08,0a5.47,5.47,0,0,1-1.81-.35A3.51,3.51,0,0,1,7,19.46a3.64,3.64,0,0,1-.86-1.32,5.41,5.41,0,0,1-.35-1.81c0-.8,0-1,0-3.08s0-2.28,0-3.08a5.47,5.47,0,0,1,.35-1.81A3.51,3.51,0,0,1,7,7a3.64,3.64,0,0,1,1.32-.86,5.47,5.47,0,0,1,1.81-.35c.8,0,1.05,0,3.08,0s2.28,0,3.08,0a5.41,5.41,0,0,1,1.81.35,3.82,3.82,0,0,1,2.18,2.18,5.17,5.17,0,0,1,.35,1.81c0,.8,0,1.05,0,3.08S20.71,15.53,20.67,16.33Z"/></g></g></svg>