<svg xmlns="http://www.w3.org/2000/svg" viewBox="0 0 26.5 26.5"><defs><style>.cls-1{fill:none;stroke:#26478d;stroke-miterlimit:10;stroke-width:0.5px;}</style></defs><g id="レイヤー_2" data-name="レイヤー 2"><g id="レイヤー_1-2" data-name="レイヤー 1"><path class="cls-1" d="M15.74,13.25a2.49,2.49,0,1,1-2.49-2.49A2.5,2.5,0,0,1,15.74,13.25Z"/><path class="cls-1" d="M19.63,8.42A2.55,2.55,0,0,0,19,7.48a2.47,2.47,0,0,0-.94-.61,4.37,4.37,0,0,0-1.52-.29c-.86,0-1.12,0-3.31,0s-2.45,0-3.31,0a4.37,4.37,0,0,0-1.52.29A2.69,2.69,0,0,0,6.87,8.42a4.37,4.37,0,0,0-.29,1.52c0,.87,0,1.12,0,3.31s0,2.45,0,3.31a4.37,4.37,0,0,0,.29,1.52,2.69,2.69,0,0,0,1.55,1.55,4.37,4.37,0,0,0,1.52.29c.87,0,1.12,0,3.31,0s2.45,0,3.31,0a4.37,4.37,0,0,0,1.52-.29,2.69,2.69,0,0,0,1.55-1.55,4.37,4.37,0,0,0,.29-1.52c0-.86,0-1.12,0-3.31s0-2.44,0-3.31A4.37,4.37,0,0,0,19.63,8.42Z"/><circle class="cls-1" cx="13.25" cy="13.25" r="3.83"/><path class="cls-1" d="M17.23,10.16a.9.9,0,1,1,.9-.89A.89.89,0,0,1,17.23,10.16Z"/><circle class="cls-1" cx="13.25" cy="13.25" r="13"/></g></g></svg>