<?xml version="1.0" encoding="utf-8"?>
<!-- Generator: Adobe Illustrator 25.2.0, SVG Export Plug-In . SVG Version: 6.00 Build 0)  -->
<svg version="1.1" id="レイヤー_1" xmlns="http://www.w3.org/2000/svg" xmlns:xlink="http://www.w3.org/1999/xlink" x="0px"
	 y="0px" viewBox="0 0 36.3 36.3" style="enable-background:new 0 0 36.3 36.3;" xml:space="preserve">
<style type="text/css">
	.st0{fill:none;stroke:#234D9C;stroke-width:0.5;stroke-miterlimit:10;}
</style>
<g id="レイヤー_2_1_">
	<g id="レイヤー_1-2">
		<path class="st0" d="M20,0.2c-9.9-1-18.7,6.2-19.8,16S6.4,35,16.3,36c9.9,1,18.7-6.2,19.8-16c0.1-1.2,0.1-2.5,0-3.7
			C35.2,7.8,28.5,1.1,20,0.2z M28.7,19v3.5c0,0.1-0.1,0.2-0.2,0.2c0,0-0.1,0-0.1,0l-4.1-4.1c-0.1-0.1-0.1-0.4,0-0.5c0,0,0,0,0,0
			l4.1-4.1c0.1-0.1,0.2-0.1,0.2,0c0,0,0,0.1,0,0.1L28.7,19z M21.9,18.3l-2.2,2.1c-0.8,0.8-2.2,0.9-3,0c0,0,0,0,0,0l-9-9
			c0.1-0.6,0.6-1,1.2-1.1h18.5c0.6,0,1.1,0.4,1.2,1.1L21.9,18.3z M7.6,22.5V14c0-0.1,0.1-0.2,0.1-0.2c0.1,0,0.1,0,0.1,0.1l4.1,4.1
			c0.1,0.1,0.1,0.4,0,0.5L9.6,21l-1.7,1.6c-0.1,0.1-0.2,0.1-0.2,0C7.6,22.6,7.6,22.6,7.6,22.5z M7.7,25l5.4-5.4
			c0.1-0.1,0.4-0.1,0.5,0l1.8,1.8c0.5,0.5,1.1,0.8,1.8,1c1.3,0.3,2.6-0.1,3.5-1l1.9-1.9c0.1-0.1,0.4-0.1,0.5,0c0,0,0,0,0,0l5.4,5.5
			c-0.2,0.5-0.7,0.8-1.2,0.8H8.9C8.4,25.8,7.9,25.5,7.7,25z"/>
	</g>
</g>
</svg>
